<?xml version="1.0" encoding="UTF-8" standalone="no"?>
<svg
   xmlns:dc="http://purl.org/dc/elements/1.1/"
   xmlns:cc="http://creativecommons.org/ns#"
   xmlns:rdf="http://www.w3.org/1999/02/22-rdf-syntax-ns#"
   xmlns:svg="http://www.w3.org/2000/svg"
   xmlns="http://www.w3.org/2000/svg"
   xmlns:sodipodi="http://sodipodi.sourceforge.net/DTD/sodipodi-0.dtd"
   xmlns:inkscape="http://www.inkscape.org/namespaces/inkscape"
   sodipodi:docname="favicon.svg"
   inkscape:version="1.0 (4035a4f, 2020-05-01)"
   id="svg8"
   version="1.1"
   viewBox="0 0 67.73333 67.733329"
   height="67.73333mm"
   width="67.73333mm">
  <defs
     id="defs2" />
  <sodipodi:namedview
     inkscape:snap-intersection-paths="true"
     inkscape:object-paths="true"
     inkscape:bbox-nodes="true"
     inkscape:snap-bbox-midpoints="true"
     inkscape:snap-bbox-edge-midpoints="true"
     inkscape:bbox-paths="true"
     inkscape:snap-bbox="true"
     inkscape:document-rotation="0"
     inkscape:window-maximized="1"
     inkscape:window-y="0"
     inkscape:window-x="0"
     inkscape:window-height="743"
     inkscape:window-width="1366"
     showgrid="false"
     inkscape:current-layer="layer1"
     inkscape:document-units="mm"
     inkscape:cy="119.40676"
     inkscape:cx="36.977966"
     inkscape:zoom="1.5091555"
     inkscape:pageshadow="2"
     inkscape:pageopacity="0"
     borderopacity="1.0"
     bordercolor="#666666"
     pagecolor="#d2d2d2"
     id="base" />
  <metadata
     id="metadata5">
    <rdf:RDF>
      <cc:Work
         rdf:about="">
        <dc:format>image/svg+xml</dc:format>
        <dc:type
           rdf:resource="http://purl.org/dc/dcmitype/StillImage" />
        <dc:title />
      </cc:Work>
    </rdf:RDF>
  </metadata>
  <g
     transform="translate(91.582672,-35.08913)"
     id="layer1"
     inkscape:groupmode="layer"
     inkscape:label="Capa 1">
    <path
       inkscape:export-ydpi="96"
       inkscape:export-xdpi="96"
       inkscape:export-filename="./favicon.png"
       d="m -86.581078,35.08913 h 57.730141 c 2.770883,0 5.001595,2.230712 5.001595,5.001595 v 57.730141 c 0,2.770884 -2.230712,5.001594 -5.001595,5.001594 h -57.730141 c -2.770883,0 -5.001594,-2.23071 -5.001594,-5.001594 V 40.090725 c 0,-2.770883 2.230711,-5.001595 5.001594,-5.001595 z"
       style="fill:#222222;fill-rule:evenodd;stroke:none;stroke-width:0.651475;paint-order:stroke fill markers;stop-color:#000000;fill-opacity:1"
       id="rect7" />
    <g
       style="fill:#eeeeee;fill-opacity:1"
       transform="translate(-0.455509,-0.60272075)"
       id="g28">
      <g
         transform="translate(0.96486833,4.2063461)"
         style="font-style:normal;font-weight:normal;font-size:36.75px;line-height:1.25;font-family:sans-serif;fill:#eeeeee;fill-opacity:1;stroke:none;stroke-width:0.918752"
         id="text12"
         aria-label="P">
        <path
           id="path30"
           style="font-style:normal;font-variant:normal;font-weight:normal;font-stretch:normal;font-family:BauerBodDEE;-inkscape-font-specification:BauerBodDEE;fill:#eeeeee;stroke-width:0.918752;fill-opacity:1"
           d="M -83.685555,64.921505 V 42.150143 h -2.27893 v -0.861328 h 11.376709 q 2.727539,0 4.30664,0.287109 1.597046,0.269165 2.745484,0.95105 2.817261,1.686767 2.817261,5.024414 0,3.463257 -2.745484,5.150024 -2.243042,1.381714 -6.74707,1.381714 h -2.583985 v 10.838379 h 2.278931 v 0.861328 h -11.448486 v -0.861328 z m 6.890625,-11.645874 q 2.494263,0 3.463257,-0.520386 0.95105,-0.520386 1.327881,-1.632934 0.394776,-1.112549 0.394776,-3.301758 0,-2.530152 -0.53833,-3.786255 -0.520386,-1.274048 -1.758545,-1.686768 -0.610108,-0.197387 -2.889039,-0.197387 z" />
      </g>
      <g
         style="font-style:normal;font-weight:normal;font-size:36.75px;line-height:1.25;font-family:sans-serif;fill:#eeeeee;fill-opacity:1;stroke:none;stroke-width:0.918752"
         id="text16"
         transform="rotate(180,0.36305867,2.0756217)"
         aria-label="P">
        <path
           id="path33"
           style="font-style:normal;font-variant:normal;font-weight:normal;font-stretch:normal;font-family:BauerBodDEE;-inkscape-font-specification:BauerBodDEE;fill:#eeeeee;stroke-width:0.918752;fill-opacity:1"
           d="m 65.107693,-65.837936 v -22.771363 h -2.278931 v -0.861328 h 11.376709 q 2.727539,0 4.306641,0.28711 1.597046,0.269165 2.745483,0.951049 2.817261,1.686768 2.817261,5.024414 0,3.463257 -2.745484,5.150025 -2.243042,1.381714 -6.74707,1.381714 h -2.583984 v 10.838379 h 2.27893 v 0.861328 H 62.828762 v -0.861328 z m 6.890625,-11.645874 q 2.494262,0 3.463257,-0.520386 0.951049,-0.520386 1.32788,-1.632935 0.394776,-1.112549 0.394776,-3.301758 0,-2.530151 -0.53833,-3.786254 -0.520386,-1.274048 -1.758545,-1.686768 -0.610108,-0.197388 -2.889038,-0.197388 z" />
      </g>
      <g
         style="font-style:normal;font-weight:normal;font-size:57.8675px;line-height:1.25;font-family:sans-serif;fill:#eeeeee;fill-opacity:1;stroke:none;stroke-width:1.44669"
         id="text20"
         aria-label="P">
        <path
           id="path36"
           style="font-style:normal;font-variant:normal;font-weight:normal;font-stretch:normal;font-family:BauerBodDEE;-inkscape-font-specification:BauerBodDEE;fill:#eeeeee;stroke-width:1.44669;fill-opacity:1"
           d="M -57.985014,88.114373 V 52.257997 h -3.588464 v -1.35627 h 17.914061 q 4.294853,0 6.781347,0.45209 2.51475,0.423834 4.323109,1.497548 4.436132,2.656027 4.436132,7.911572 0,5.453334 -4.323109,8.109361 -3.531952,2.175683 -10.624112,2.175683 h -4.068808 v 17.066392 h 3.588463 v 1.356269 h -18.027083 v -1.356269 z m 10.850156,-18.337895 q 3.92753,0 5.453334,-0.819413 1.497547,-0.819413 2.090915,-2.571261 0.621624,-1.751848 0.621624,-5.199033 0,-3.984042 -0.847669,-5.961935 -0.819413,-2.006148 -2.76905,-2.656028 -0.960691,-0.310811 -4.549154,-0.310811 z" />
      </g>
    </g>
  </g>
</svg>
